<mxfile host="app.diagrams.net" agent="Mozilla/5.0 (Macintosh; Intel Mac OS X 10_15_7) AppleWebKit/537.36 (KHTML, like Gecko) Chrome/137.0.0.0 Safari/537.36" version="27.1.4">
  <diagram name="Page-1" id="PCAkcvR4DL5EKSnCxKyb">
    <mxGraphModel dx="1248" dy="913" grid="1" gridSize="10" guides="1" tooltips="1" connect="1" arrows="1" fold="1" page="1" pageScale="1" pageWidth="827" pageHeight="1169" math="0" shadow="0">
      <root>
        <mxCell id="0" />
        <mxCell id="1" parent="0" />
        <mxCell id="5_mmEcQGvkhJTla73_cH-1" value="Clientes (Web / Mobile)" style="whiteSpace=wrap;strokeWidth=2;" vertex="1" parent="1">
          <mxGeometry x="580" y="20" width="205" height="54" as="geometry" />
        </mxCell>
        <mxCell id="5_mmEcQGvkhJTla73_cH-2" value="CloudFront + API Gateway" style="whiteSpace=wrap;strokeWidth=2;" vertex="1" parent="1">
          <mxGeometry x="559" y="124" width="246" height="54" as="geometry" />
        </mxCell>
        <mxCell id="5_mmEcQGvkhJTla73_cH-3" value="Application Load Balancer" style="whiteSpace=wrap;strokeWidth=2;" vertex="1" parent="1">
          <mxGeometry x="559" y="228" width="247" height="54" as="geometry" />
        </mxCell>
        <mxCell id="5_mmEcQGvkhJTla73_cH-4" value="BookService (ECS Fargate)" style="whiteSpace=wrap;strokeWidth=2;" vertex="1" parent="1">
          <mxGeometry x="138" y="344" width="236" height="54" as="geometry" />
        </mxCell>
        <mxCell id="5_mmEcQGvkhJTla73_cH-5" value="UserService (ECS Fargate)" style="whiteSpace=wrap;strokeWidth=2;" vertex="1" parent="1">
          <mxGeometry x="565" y="344" width="234" height="54" as="geometry" />
        </mxCell>
        <mxCell id="5_mmEcQGvkhJTla73_cH-6" value="Recommendation Engine (SageMaker)" style="whiteSpace=wrap;strokeWidth=2;" vertex="1" parent="1">
          <mxGeometry x="966" y="332" width="260" height="78" as="geometry" />
        </mxCell>
        <mxCell id="5_mmEcQGvkhJTla73_cH-7" value="SQS (Message Queue)" style="whiteSpace=wrap;strokeWidth=2;" vertex="1" parent="1">
          <mxGeometry x="20" y="472" width="200" height="54" as="geometry" />
        </mxCell>
        <mxCell id="5_mmEcQGvkhJTla73_cH-8" value="Amazon RDS (PostgreSQL)" style="whiteSpace=wrap;strokeWidth=2;" vertex="1" parent="1">
          <mxGeometry x="566" y="472" width="232" height="54" as="geometry" />
        </mxCell>
        <mxCell id="5_mmEcQGvkhJTla73_cH-9" value="DynamoDB (Book Metadata)" style="whiteSpace=wrap;strokeWidth=2;" vertex="1" parent="1">
          <mxGeometry x="270" y="472" width="246" height="54" as="geometry" />
        </mxCell>
        <mxCell id="5_mmEcQGvkhJTla73_cH-10" value="ElastiCache (Redis)" style="whiteSpace=wrap;strokeWidth=2;" vertex="1" parent="1">
          <mxGeometry x="890" y="500" width="185" height="54" as="geometry" />
        </mxCell>
        <mxCell id="5_mmEcQGvkhJTla73_cH-11" value="Amazon S3 (Arquivos de livros)" style="whiteSpace=wrap;strokeWidth=2;" vertex="1" parent="1">
          <mxGeometry x="1020" y="585" width="260" height="78" as="geometry" />
        </mxCell>
        <mxCell id="5_mmEcQGvkhJTla73_cH-12" value="" style="curved=1;startArrow=none;endArrow=block;exitX=0.5;exitY=1;entryX=0.5;entryY=0;rounded=0;" edge="1" parent="1" source="5_mmEcQGvkhJTla73_cH-1" target="5_mmEcQGvkhJTla73_cH-2">
          <mxGeometry relative="1" as="geometry">
            <Array as="points" />
          </mxGeometry>
        </mxCell>
        <mxCell id="5_mmEcQGvkhJTla73_cH-13" value="" style="curved=1;startArrow=none;endArrow=block;exitX=0.5;exitY=1;entryX=0.5;entryY=0;rounded=0;" edge="1" parent="1" source="5_mmEcQGvkhJTla73_cH-2" target="5_mmEcQGvkhJTla73_cH-3">
          <mxGeometry relative="1" as="geometry">
            <Array as="points" />
          </mxGeometry>
        </mxCell>
        <mxCell id="5_mmEcQGvkhJTla73_cH-14" value="" style="curved=1;startArrow=none;endArrow=block;exitX=0;exitY=0.78;entryX=0.5;entryY=0;rounded=0;" edge="1" parent="1" source="5_mmEcQGvkhJTla73_cH-3" target="5_mmEcQGvkhJTla73_cH-4">
          <mxGeometry relative="1" as="geometry">
            <Array as="points">
              <mxPoint x="256" y="307" />
            </Array>
          </mxGeometry>
        </mxCell>
        <mxCell id="5_mmEcQGvkhJTla73_cH-15" value="" style="curved=1;startArrow=none;endArrow=block;exitX=0.5;exitY=1;entryX=0.5;entryY=0;rounded=0;" edge="1" parent="1" source="5_mmEcQGvkhJTla73_cH-3" target="5_mmEcQGvkhJTla73_cH-5">
          <mxGeometry relative="1" as="geometry">
            <Array as="points" />
          </mxGeometry>
        </mxCell>
        <mxCell id="5_mmEcQGvkhJTla73_cH-16" value="" style="curved=1;startArrow=none;endArrow=block;exitX=1;exitY=0.79;entryX=0.5;entryY=0;rounded=0;" edge="1" parent="1" source="5_mmEcQGvkhJTla73_cH-3" target="5_mmEcQGvkhJTla73_cH-6">
          <mxGeometry relative="1" as="geometry">
            <Array as="points">
              <mxPoint x="1096" y="307" />
            </Array>
          </mxGeometry>
        </mxCell>
        <mxCell id="5_mmEcQGvkhJTla73_cH-17" value="" style="curved=1;startArrow=none;endArrow=block;exitX=0.26;exitY=1;entryX=0.5;entryY=0;rounded=0;" edge="1" parent="1" source="5_mmEcQGvkhJTla73_cH-4" target="5_mmEcQGvkhJTla73_cH-7">
          <mxGeometry relative="1" as="geometry">
            <Array as="points">
              <mxPoint x="120" y="435" />
            </Array>
          </mxGeometry>
        </mxCell>
        <mxCell id="5_mmEcQGvkhJTla73_cH-18" value="" style="curved=1;startArrow=none;endArrow=block;exitX=0.5;exitY=1;entryX=0.5;entryY=0;rounded=0;" edge="1" parent="1" source="5_mmEcQGvkhJTla73_cH-5" target="5_mmEcQGvkhJTla73_cH-8">
          <mxGeometry relative="1" as="geometry">
            <Array as="points" />
          </mxGeometry>
        </mxCell>
        <mxCell id="5_mmEcQGvkhJTla73_cH-19" value="" style="curved=1;startArrow=none;endArrow=block;exitX=0.75;exitY=1;entryX=0.5;entryY=0;rounded=0;" edge="1" parent="1" source="5_mmEcQGvkhJTla73_cH-4" target="5_mmEcQGvkhJTla73_cH-9">
          <mxGeometry relative="1" as="geometry">
            <Array as="points">
              <mxPoint x="393" y="435" />
            </Array>
          </mxGeometry>
        </mxCell>
        <mxCell id="5_mmEcQGvkhJTla73_cH-20" value="" style="curved=1;startArrow=none;endArrow=block;exitX=0.18;exitY=1;entryX=0.5;entryY=0;rounded=0;" edge="1" parent="1" source="5_mmEcQGvkhJTla73_cH-6" target="5_mmEcQGvkhJTla73_cH-10">
          <mxGeometry relative="1" as="geometry">
            <Array as="points">
              <mxPoint x="960" y="435" />
            </Array>
          </mxGeometry>
        </mxCell>
        <mxCell id="5_mmEcQGvkhJTla73_cH-21" value="" style="curved=1;startArrow=none;endArrow=block;exitX=0.82;exitY=1;entryX=0.5;entryY=0;rounded=0;" edge="1" parent="1" source="5_mmEcQGvkhJTla73_cH-6" target="5_mmEcQGvkhJTla73_cH-11">
          <mxGeometry relative="1" as="geometry">
            <Array as="points">
              <mxPoint x="1232" y="435" />
            </Array>
          </mxGeometry>
        </mxCell>
      </root>
    </mxGraphModel>
  </diagram>
</mxfile>
